<svg width="225" height="225" viewBox="0 0 225 225" fill="none" xmlns="http://www.w3.org/2000/svg">
<g clip-path="url(#clip0_4_3)">
<circle cx="112.5" cy="112.5" r="112.5" fill="#42A5F5"/>
<g filter="url(#filter0_d_4_3)">
<path d="M62.5534 123.39V126.512H59.4314V123.39H62.5534ZM62.5534 120.268V123.39H59.4314V120.268H62.5534ZM62.5534 117.146V120.268H59.4314V117.146H62.5534ZM62.5534 114.024V117.146H59.4314V114.024H62.5534ZM62.5534 110.902V114.024H59.4314V110.902H62.5534ZM62.5534 107.78V110.902H59.4314V107.78H62.5534ZM62.5534 104.659V107.78H59.4314V104.659H62.5534ZM62.5534 101.537V104.659H59.4314V101.537H62.5534ZM62.5534 98.4146V101.537H59.4314V98.4146H62.5534ZM62.5534 95.2927V98.4146H59.4314V95.2927H62.5534ZM62.5534 92.1707V95.2927H59.4314V92.1707H62.5534ZM65.6753 92.1707V95.2927H62.5534V92.1707H65.6753ZM65.6753 95.2927V98.4146H62.5534V95.2927H65.6753ZM65.6753 98.4146V101.537H62.5534V98.4146H65.6753ZM65.6753 101.537V104.659H62.5534V101.537H65.6753ZM65.6753 104.659V107.78H62.5534V104.659H65.6753ZM65.6753 107.78V110.902H62.5534V107.78H65.6753ZM65.6753 110.902V114.024H62.5534V110.902H65.6753ZM68.7973 114.024V117.146H65.6753V114.024H68.7973ZM68.7973 117.146V120.268H65.6753V117.146H68.7973ZM68.7973 120.268V123.39H65.6753V120.268H68.7973ZM68.7973 123.39V126.512H65.6753V123.39H68.7973ZM68.7973 126.512V129.634H65.6753V126.512H68.7973ZM68.7973 129.634V132.756H65.6753V129.634H68.7973ZM68.7973 132.756V135.878H65.6753V132.756H68.7973ZM75.0412 135.878V139H71.9192V135.878H75.0412ZM75.0412 132.756V135.878H71.9192V132.756H75.0412ZM75.0412 129.634V132.756H71.9192V129.634H75.0412ZM75.0412 126.512V129.634H71.9192V126.512H75.0412ZM75.0412 123.39V126.512H71.9192V123.39H75.0412ZM75.0412 120.268V123.39H71.9192V120.268H75.0412ZM75.0412 117.146V120.268H71.9192V117.146H75.0412ZM75.0412 114.024V117.146H71.9192V114.024H75.0412ZM71.9192 114.024V117.146H68.7973V114.024H71.9192ZM71.9192 110.902V114.024H68.7973V110.902H71.9192ZM71.9192 117.146V120.268H68.7973V117.146H71.9192ZM71.9192 120.268V123.39H68.7973V120.268H71.9192ZM71.9192 123.39V126.512H68.7973V123.39H71.9192ZM71.9192 126.512V129.634H68.7973V126.512H71.9192ZM71.9192 129.634V132.756H68.7973V129.634H71.9192ZM71.9192 132.756V135.878H68.7973V132.756H71.9192ZM65.6753 129.634V132.756H62.5534V129.634H65.6753ZM65.6753 126.512V129.634H62.5534V126.512H65.6753ZM65.6753 123.39V126.512H62.5534V123.39H65.6753ZM65.6753 120.268V123.39H62.5534V120.268H65.6753ZM65.6753 117.146V120.268H62.5534V117.146H65.6753ZM65.6753 114.024V117.146H62.5534V114.024H65.6753ZM62.5534 89.0488V92.1707H59.4314V89.0488H62.5534ZM71.9192 89.0488V92.1707H68.7973V89.0488H71.9192ZM71.9192 92.1707V95.2927H68.7973V92.1707H71.9192ZM71.9192 95.2927V98.4146H68.7973V95.2927H71.9192ZM71.9192 98.4146V101.537H68.7973V98.4146H71.9192ZM71.9192 101.537V104.659H68.7973V101.537H71.9192ZM75.0412 104.659V107.78H71.9192V104.659H75.0412ZM75.0412 107.78V110.902H71.9192V107.78H75.0412ZM75.0412 110.902V114.024H71.9192V110.902H75.0412ZM75.0412 101.537V104.659H71.9192V101.537H75.0412ZM75.0412 98.4146V101.537H71.9192V98.4146H75.0412ZM75.0412 95.2927V98.4146H71.9192V95.2927H75.0412ZM75.0412 92.1707V95.2927H71.9192V92.1707H75.0412ZM75.0412 89.0488V92.1707H71.9192V89.0488H75.0412ZM65.6753 89.0488V92.1707H62.5534V89.0488H65.6753ZM68.7973 89.0488V92.1707H65.6753V89.0488H68.7973ZM68.7973 92.1707V95.2927H65.6753V92.1707H68.7973ZM68.7973 95.2927V98.4146H65.6753V95.2927H68.7973ZM68.7973 98.4146V101.537H65.6753V98.4146H68.7973ZM68.7973 101.537V104.659H65.6753V101.537H68.7973ZM68.7973 104.659V107.78H65.6753V104.659H68.7973ZM68.7973 107.78V110.902H65.6753V107.78H68.7973ZM68.7973 110.902V114.024H65.6753V110.902H68.7973ZM71.9192 107.78V110.902H68.7973V107.78H71.9192ZM71.9192 104.659V107.78H68.7973V104.659H71.9192ZM100.017 135.878V139H96.8948V135.878H100.017ZM100.017 132.756V135.878H96.8948V132.756H100.017ZM100.017 129.634V132.756H96.8948V129.634H100.017ZM100.017 126.512V129.634H96.8948V126.512H100.017ZM100.017 123.39V126.512H96.8948V123.39H100.017ZM100.017 120.268V123.39H96.8948V120.268H100.017ZM100.017 117.146V120.268H96.8948V117.146H100.017ZM106.261 117.146V120.268H103.139V117.146H106.261ZM106.261 120.268V123.39H103.139V120.268H106.261ZM106.261 123.39V126.512H103.139V123.39H106.261ZM106.261 126.512V129.634H103.139V126.512H106.261ZM106.261 129.634V132.756H103.139V129.634H106.261ZM106.261 132.756V135.878H103.139V132.756H106.261ZM112.505 123.39V126.512H109.383V123.39H112.505ZM112.505 120.268V123.39H109.383V120.268H112.505ZM112.505 117.146V120.268H109.383V117.146H112.505ZM109.383 117.146V120.268H106.261V117.146H109.383ZM109.383 120.268V123.39H106.261V120.268H109.383ZM109.383 123.39V126.512H106.261V123.39H109.383ZM109.383 126.512V129.634H106.261V126.512H109.383ZM109.383 129.634V132.756H106.261V129.634H109.383ZM103.139 132.756V135.878H100.017V132.756H103.139ZM103.139 129.634V132.756H100.017V129.634H103.139ZM103.139 126.512V129.634H100.017V126.512H103.139ZM103.139 123.39V126.512H100.017V123.39H103.139ZM103.139 120.268V123.39H100.017V120.268H103.139ZM103.139 117.146V120.268H100.017V117.146H103.139ZM78.1631 135.878V139H75.0412V135.878H78.1631ZM81.2851 135.878V139H78.1631V135.878H81.2851ZM84.407 135.878V139H81.2851V135.878H84.407ZM87.529 135.878V139H84.407V135.878H87.529ZM93.7729 135.878V139H90.6509V135.878H93.7729ZM96.8948 135.878V139H93.7729V135.878H96.8948ZM96.8948 132.756V135.878H93.7729V132.756H96.8948ZM93.7729 132.756V135.878H90.6509V132.756H93.7729ZM87.529 132.756V135.878H84.407V132.756H87.529ZM84.407 132.756V135.878H81.2851V132.756H84.407ZM81.2851 132.756V135.878H78.1631V132.756H81.2851ZM78.1631 132.756V135.878H75.0412V132.756H78.1631ZM78.1631 129.634V132.756H75.0412V129.634H78.1631ZM81.2851 129.634V132.756H78.1631V129.634H81.2851ZM84.407 129.634V132.756H81.2851V129.634H84.407ZM87.529 129.634V132.756H84.407V129.634H87.529ZM93.7729 129.634V132.756H90.6509V129.634H93.7729ZM96.8948 129.634V132.756H93.7729V129.634H96.8948ZM96.8948 126.512V129.634H93.7729V126.512H96.8948ZM93.7729 126.512V129.634H90.6509V126.512H93.7729ZM87.529 126.512V129.634H84.407V126.512H87.529ZM84.407 126.512V129.634H81.2851V126.512H84.407ZM81.2851 126.512V129.634H78.1631V126.512H81.2851ZM78.1631 126.512V129.634H75.0412V126.512H78.1631ZM78.1631 123.39V126.512H75.0412V123.39H78.1631ZM96.8948 123.39V126.512H93.7729V123.39H96.8948ZM109.383 76.561V73.439H112.505V76.561H109.383ZM109.383 79.6829V76.561H112.505V79.6829H109.383ZM109.383 82.8049V79.6829H112.505V82.8049H109.383ZM103.139 82.8049V79.6829H106.261V82.8049H103.139ZM103.139 79.6829V76.561H106.261V79.6829H103.139ZM103.139 76.561V73.439H106.261V76.561H103.139ZM103.139 73.439V70.3171H106.261V73.439H103.139ZM103.139 70.3171V67.1951H106.261V70.3171H103.139ZM103.139 67.1951V64.0732H106.261V67.1951H103.139ZM96.8948 64.0732V60.9512H100.017V64.0732H96.8948ZM96.8948 67.1951V64.0732H100.017V67.1951H96.8948ZM96.8948 70.3171V67.1951H100.017V70.3171H96.8948ZM96.8948 73.439V70.3171H100.017V73.439H96.8948ZM96.8948 76.561V73.439H100.017V76.561H96.8948ZM96.8948 79.6829V76.561H100.017V79.6829H96.8948ZM96.8948 82.8049V79.6829H100.017V82.8049H96.8948ZM100.017 82.8049V79.6829H103.139V82.8049H100.017ZM100.017 79.6829V76.561H103.139V79.6829H100.017ZM100.017 76.561V73.439H103.139V76.561H100.017ZM100.017 73.439V70.3171H103.139V73.439H100.017ZM100.017 70.3171V67.1951H103.139V70.3171H100.017ZM100.017 67.1951V64.0732H103.139V67.1951H100.017ZM106.261 70.3171V67.1951H109.383V70.3171H106.261ZM106.261 73.439V70.3171H109.383V73.439H106.261ZM106.261 76.561V73.439H109.383V76.561H106.261ZM106.261 79.6829V76.561H109.383V79.6829H106.261ZM106.261 82.8049V79.6829H109.383V82.8049H106.261ZM71.9192 64.0732V60.9512H75.0412V64.0732H71.9192ZM71.9192 67.1951V64.0732H75.0412V67.1951H71.9192ZM71.9192 70.3171V67.1951H75.0412V70.3171H71.9192ZM71.9192 73.439V70.3171H75.0412V73.439H71.9192ZM71.9192 76.561V73.439H75.0412V76.561H71.9192ZM71.9192 79.6829V76.561H75.0412V79.6829H71.9192ZM71.9192 82.8049V79.6829H75.0412V82.8049H71.9192ZM65.6753 82.8049V79.6829H68.7973V82.8049H65.6753ZM65.6753 79.6829V76.561H68.7973V79.6829H65.6753ZM65.6753 76.561V73.439H68.7973V76.561H65.6753ZM65.6753 73.439V70.3171H68.7973V73.439H65.6753ZM65.6753 70.3171V67.1951H68.7973V70.3171H65.6753ZM65.6753 67.1951V64.0732H68.7973V67.1951H65.6753ZM59.4314 76.561V73.439H62.5534V76.561H59.4314ZM59.4314 79.6829V76.561H62.5534V79.6829H59.4314ZM59.4314 82.8049V79.6829H62.5534V82.8049H59.4314ZM62.5534 82.8049V79.6829H65.6753V82.8049H62.5534ZM62.5534 79.6829V76.561H65.6753V79.6829H62.5534ZM62.5534 76.561V73.439H65.6753V76.561H62.5534ZM62.5534 73.439V70.3171H65.6753V73.439H62.5534ZM62.5534 70.3171V67.1951H65.6753V70.3171H62.5534ZM68.7973 67.1951V64.0732H71.9192V67.1951H68.7973ZM68.7973 70.3171V67.1951H71.9192V70.3171H68.7973ZM68.7973 73.439V70.3171H71.9192V73.439H68.7973ZM68.7973 76.561V73.439H71.9192V76.561H68.7973ZM68.7973 79.6829V76.561H71.9192V79.6829H68.7973ZM68.7973 82.8049V79.6829H71.9192V82.8049H68.7973ZM93.7729 64.0732V60.9512H96.8948V64.0732H93.7729ZM90.6509 64.0732V60.9512H93.7729V64.0732H90.6509ZM84.407 64.0732V60.9512H87.529V64.0732H84.407ZM81.2851 64.0732V60.9512H84.407V64.0732H81.2851ZM78.1631 64.0732V60.9512H81.2851V64.0732H78.1631ZM75.0412 64.0732V60.9512H78.1631V64.0732H75.0412ZM75.0412 67.1951V64.0732H78.1631V67.1951H75.0412ZM78.1631 67.1951V64.0732H81.2851V67.1951H78.1631ZM81.2851 67.1951V64.0732H84.407V67.1951H81.2851ZM84.407 67.1951V64.0732H87.529V67.1951H84.407ZM90.6509 67.1951V64.0732H93.7729V67.1951H90.6509ZM93.7729 67.1951V64.0732H96.8948V67.1951H93.7729ZM93.7729 70.3171V67.1951H96.8948V70.3171H93.7729ZM90.6509 70.3171V67.1951H93.7729V70.3171H90.6509ZM84.407 70.3171V67.1951H87.529V70.3171H84.407ZM81.2851 70.3171V67.1951H84.407V70.3171H81.2851ZM78.1631 70.3171V67.1951H81.2851V70.3171H78.1631ZM75.0412 70.3171V67.1951H78.1631V70.3171H75.0412ZM75.0412 73.439V70.3171H78.1631V73.439H75.0412ZM78.1631 73.439V70.3171H81.2851V73.439H78.1631ZM81.2851 73.439V70.3171H84.407V73.439H81.2851ZM84.407 73.439V70.3171H87.529V73.439H84.407ZM90.6509 73.439V70.3171H93.7729V73.439H90.6509ZM93.7729 73.439V70.3171H96.8948V73.439H93.7729ZM93.7729 76.561V73.439H96.8948V76.561H93.7729ZM75.0412 76.561V73.439H78.1631V76.561H75.0412ZM62.5534 85.9268V89.0488H59.4314V85.9268H62.5534ZM65.6753 85.9268V89.0488H62.5534V85.9268H65.6753ZM62.5534 82.8049V85.9268H59.4314V82.8049H62.5534ZM71.9192 82.8049V85.9268H68.7973V82.8049H71.9192ZM71.9192 85.9268V89.0488H68.7973V85.9268H71.9192ZM75.0412 85.9268V89.0488H71.9192V85.9268H75.0412ZM75.0412 82.8049V85.9268H71.9192V82.8049H75.0412ZM65.6753 82.8049V85.9268H62.5534V82.8049H65.6753ZM68.7973 82.8049V85.9268H65.6753V82.8049H68.7973ZM68.7973 85.9268V89.0488H65.6753V85.9268H68.7973ZM87.529 95.2927V98.4146H84.407V95.2927H87.529ZM87.529 98.4146V101.537H84.407V98.4146H87.529ZM93.7729 98.4146V101.537H90.6509V98.4146H93.7729ZM96.8948 98.4146V101.537H93.7729V98.4146H96.8948ZM100.017 98.4146V101.537H96.8948V98.4146H100.017ZM103.139 98.4146V101.537H100.017V98.4146H103.139ZM106.261 98.4146V101.537H103.139V98.4146H106.261ZM109.383 98.4146V101.537H106.261V98.4146H109.383ZM112.505 95.2927V98.4146H109.383V95.2927H112.505ZM109.383 95.2927V98.4146H106.261V95.2927H109.383ZM106.261 95.2927V98.4146H103.139V95.2927H106.261ZM103.139 95.2927V98.4146H100.017V95.2927H103.139ZM100.017 95.2927V98.4146H96.8948V95.2927H100.017ZM96.8948 95.2927V98.4146H93.7729V95.2927H96.8948ZM93.7729 95.2927V98.4146H90.6509V95.2927H93.7729ZM112.505 98.4146V101.537H109.383V98.4146H112.505ZM112.505 101.537V104.659H109.383V101.537H112.505ZM112.505 104.659V107.78H109.383V104.659H112.505ZM112.505 107.78V110.902H109.383V107.78H112.505ZM112.505 110.902V114.024H109.383V110.902H112.505ZM112.505 114.024V117.146H109.383V114.024H112.505ZM109.383 114.024V117.146H106.261V114.024H109.383ZM106.261 114.024V117.146H103.139V114.024H106.261ZM103.139 114.024V117.146H100.017V114.024H103.139ZM100.017 114.024V117.146H96.8948V114.024H100.017ZM100.017 110.902V114.024H96.8948V110.902H100.017ZM103.139 110.902V114.024H100.017V110.902H103.139ZM106.261 110.902V114.024H103.139V110.902H106.261ZM109.383 110.902V114.024H106.261V110.902H109.383ZM109.383 107.78V110.902H106.261V107.78H109.383ZM106.261 107.78V110.902H103.139V107.78H106.261ZM103.139 107.78V110.902H100.017V107.78H103.139ZM100.017 107.78V110.902H96.8948V107.78H100.017ZM87.529 101.537V104.659H84.407V101.537H87.529ZM87.529 104.659V107.78H84.407V104.659H87.529ZM93.7729 104.659V107.78H90.6509V104.659H93.7729ZM96.8948 104.659V107.78H93.7729V104.659H96.8948ZM100.017 104.659V107.78H96.8948V104.659H100.017ZM103.139 104.659V107.78H100.017V104.659H103.139ZM106.261 104.659V107.78H103.139V104.659H106.261ZM109.383 104.659V107.78H106.261V104.659H109.383ZM109.383 101.537V104.659H106.261V101.537H109.383ZM106.261 101.537V104.659H103.139V101.537H106.261ZM103.139 101.537V104.659H100.017V101.537H103.139ZM100.017 101.537V104.659H96.8948V101.537H100.017ZM96.8948 101.537V104.659H93.7729V101.537H96.8948ZM93.7729 101.537V104.659H90.6509V101.537H93.7729ZM81.2851 123.39V126.512H78.1631V123.39H81.2851ZM84.407 123.39V126.512H81.2851V123.39H84.407ZM87.529 123.39V126.512H84.407V123.39H87.529ZM93.7729 123.39V126.512H90.6509V123.39H93.7729ZM96.8948 120.268V123.39H93.7729V120.268H96.8948ZM78.1631 120.268V123.39H75.0412V120.268H78.1631ZM81.2851 73.439V76.561H78.1631V73.439H81.2851ZM84.407 73.439V76.561H81.2851V73.439H84.407ZM87.529 73.439V76.561H84.407V73.439H87.529ZM93.7729 73.439V76.561H90.6509V73.439H93.7729ZM78.1631 76.561V79.6829H75.0412V76.561H78.1631ZM96.8948 76.561V79.6829H93.7729V76.561H96.8948ZM100.017 82.8049V85.9268H96.8948V82.8049H100.017ZM103.139 82.8049V85.9268H100.017V82.8049H103.139ZM106.261 82.8049V85.9268H103.139V82.8049H106.261ZM109.383 82.8049V85.9268H106.261V82.8049H109.383ZM112.505 82.8049V85.9268H109.383V82.8049H112.505ZM87.529 107.78V110.902H84.407V107.78H87.529ZM93.7729 107.78V110.902H90.6509V107.78H93.7729ZM96.8948 107.78V110.902H93.7729V107.78H96.8948ZM90.6509 60.9512V64.0732H87.529V60.9512H90.6509ZM90.6509 64.0732V67.1951H87.529V64.0732H90.6509ZM90.6509 67.1951V70.3171H87.529V67.1951H90.6509ZM90.6509 70.3171V73.439H87.529V70.3171H90.6509ZM90.6509 73.439V76.561H87.529V73.439H90.6509ZM90.6509 95.2927V98.4146H87.529V95.2927H90.6509ZM90.6509 98.4146V101.537H87.529V98.4146H90.6509ZM90.6509 101.537V104.659H87.529V101.537H90.6509ZM90.6509 104.659V107.78H87.529V104.659H90.6509ZM90.6509 107.78V110.902H87.529V107.78H90.6509ZM90.6509 123.39V126.512H87.529V123.39H90.6509ZM90.6509 126.512V129.634H87.529V126.512H90.6509ZM90.6509 129.634V132.756H87.529V129.634H90.6509ZM90.6509 132.756V135.878H87.529V132.756H90.6509ZM90.6509 135.878V139H87.529V135.878H90.6509ZM128.053 135.878V139H124.931V135.878H128.053ZM128.053 132.756V135.878H124.931V132.756H128.053ZM128.053 129.634V132.756H124.931V129.634H128.053ZM128.053 126.512V129.634H124.931V126.512H128.053ZM128.053 123.39V126.512H124.931V123.39H128.053ZM128.053 120.268V123.39H124.931V120.268H128.053ZM128.053 117.146V120.268H124.931V117.146H128.053ZM128.053 114.024V117.146H124.931V114.024H128.053ZM128.053 110.902V114.024H124.931V110.902H128.053ZM128.053 107.78V110.902H124.931V107.78H128.053ZM128.053 104.659V107.78H124.931V104.659H128.053ZM128.053 101.537V104.659H124.931V101.537H128.053ZM128.053 98.4146V101.537H124.931V98.4146H128.053ZM128.053 95.2927V98.4146H124.931V95.2927H128.053ZM128.053 92.1707V95.2927H124.931V92.1707H128.053ZM131.175 92.1707V95.2927H128.053V92.1707H131.175ZM131.175 95.2927V98.4146H128.053V95.2927H131.175ZM131.175 98.4146V101.537H128.053V98.4146H131.175ZM131.175 101.537V104.659H128.053V101.537H131.175ZM131.175 104.659V107.78H128.053V104.659H131.175ZM131.175 107.78V110.902H128.053V107.78H131.175ZM131.175 110.902V114.024H128.053V110.902H131.175ZM134.297 114.024V117.146H131.175V114.024H134.297ZM134.297 117.146V120.268H131.175V117.146H134.297ZM134.297 120.268V123.39H131.175V120.268H134.297ZM134.297 123.39V126.512H131.175V123.39H134.297ZM134.297 126.512V129.634H131.175V126.512H134.297ZM134.297 129.634V132.756H131.175V129.634H134.297ZM134.297 132.756V135.878H131.175V132.756H134.297ZM134.297 135.878V139H131.175V135.878H134.297ZM137.419 135.878V139H134.297V135.878H137.419ZM140.541 135.878V139H137.419V135.878H140.541ZM140.541 132.756V135.878H137.419V132.756H140.541ZM140.541 129.634V132.756H137.419V129.634H140.541ZM140.541 126.512V129.634H137.419V126.512H140.541ZM140.541 123.39V126.512H137.419V123.39H140.541ZM140.541 120.268V123.39H137.419V120.268H140.541ZM140.541 117.146V120.268H137.419V117.146H140.541ZM140.541 114.024V117.146H137.419V114.024H140.541ZM137.419 114.024V117.146H134.297V114.024H137.419ZM137.419 110.902V114.024H134.297V110.902H137.419ZM137.419 117.146V120.268H134.297V117.146H137.419ZM137.419 120.268V123.39H134.297V120.268H137.419ZM137.419 123.39V126.512H134.297V123.39H137.419ZM137.419 126.512V129.634H134.297V126.512H137.419ZM137.419 129.634V132.756H134.297V129.634H137.419ZM137.419 132.756V135.878H134.297V132.756H137.419ZM131.175 135.878V139H128.053V135.878H131.175ZM131.175 132.756V135.878H128.053V132.756H131.175ZM131.175 129.634V132.756H128.053V129.634H131.175ZM131.175 126.512V129.634H128.053V126.512H131.175ZM131.175 123.39V126.512H128.053V123.39H131.175ZM131.175 120.268V123.39H128.053V120.268H131.175ZM131.175 117.146V120.268H128.053V117.146H131.175ZM131.175 114.024V117.146H128.053V114.024H131.175ZM128.053 60.9512V64.0732H124.931V60.9512H128.053ZM128.053 64.0732V67.1951H124.931V64.0732H128.053ZM128.053 67.1951V70.3171H124.931V67.1951H128.053ZM128.053 70.3171V73.439H124.931V70.3171H128.053ZM128.053 73.439V76.561H124.931V73.439H128.053ZM128.053 76.561V79.6829H124.931V76.561H128.053ZM128.053 79.6829V82.8049H124.931V79.6829H128.053ZM128.053 82.8049V85.9268H124.931V82.8049H128.053ZM128.053 85.9268V89.0488H124.931V85.9268H128.053ZM128.053 89.0488V92.1707H124.931V89.0488H128.053ZM137.419 60.9512V64.0732H134.297V60.9512H137.419ZM137.419 64.0732V67.1951H134.297V64.0732H137.419ZM137.419 67.1951V70.3171H134.297V67.1951H137.419ZM137.419 70.3171V73.439H134.297V70.3171H137.419ZM137.419 73.439V76.561H134.297V73.439H137.419ZM137.419 76.561V79.6829H134.297V76.561H137.419ZM137.419 82.8049V85.9268H134.297V82.8049H137.419ZM137.419 85.9268V89.0488H134.297V85.9268H137.419ZM137.419 89.0488V92.1707H134.297V89.0488H137.419ZM137.419 92.1707V95.2927H134.297V92.1707H137.419ZM137.419 95.2927V98.4146H134.297V95.2927H137.419ZM137.419 98.4146V101.537H134.297V98.4146H137.419ZM137.419 101.537V104.659H134.297V101.537H137.419ZM140.541 104.659V107.78H137.419V104.659H140.541ZM140.541 107.78V110.902H137.419V107.78H140.541ZM140.541 110.902V114.024H137.419V110.902H140.541ZM140.541 101.537V104.659H137.419V101.537H140.541ZM140.541 98.4146V101.537H137.419V98.4146H140.541ZM140.541 95.2927V98.4146H137.419V95.2927H140.541ZM140.541 92.1707V95.2927H137.419V92.1707H140.541ZM140.541 89.0488V92.1707H137.419V89.0488H140.541ZM140.541 85.9268V89.0488H137.419V85.9268H140.541ZM140.541 82.8049V85.9268H137.419V82.8049H140.541ZM140.541 79.6829V82.8049H137.419V79.6829H140.541ZM140.541 76.561V79.6829H137.419V76.561H140.541ZM140.541 73.439V76.561H137.419V73.439H140.541ZM137.419 79.6829V82.8049H134.297V79.6829H137.419ZM140.541 70.3171V73.439H137.419V70.3171H140.541ZM140.541 67.1951V70.3171H137.419V67.1951H140.541ZM140.541 64.0732V67.1951H137.419V64.0732H140.541ZM140.541 60.9512V64.0732H137.419V60.9512H140.541ZM134.297 60.9512V64.0732H131.175V60.9512H134.297ZM131.175 60.9512V64.0732H128.053V60.9512H131.175ZM131.175 64.0732V67.1951H128.053V64.0732H131.175ZM134.297 64.0732V67.1951H131.175V64.0732H134.297ZM134.297 67.1951V70.3171H131.175V67.1951H134.297ZM134.297 70.3171V73.439H131.175V70.3171H134.297ZM134.297 73.439V76.561H131.175V73.439H134.297ZM134.297 76.561V79.6829H131.175V76.561H134.297ZM134.297 79.6829V82.8049H131.175V79.6829H134.297ZM134.297 82.8049V85.9268H131.175V82.8049H134.297ZM131.175 85.9268V89.0488H128.053V85.9268H131.175ZM131.175 89.0488V92.1707H128.053V89.0488H131.175ZM131.175 82.8049V85.9268H128.053V82.8049H131.175ZM131.175 79.6829V82.8049H128.053V79.6829H131.175ZM131.175 76.561V79.6829H128.053V76.561H131.175ZM131.175 73.439V76.561H128.053V73.439H131.175ZM131.175 70.3171V73.439H128.053V70.3171H131.175ZM131.175 67.1951V70.3171H128.053V67.1951H131.175ZM134.297 85.9268V89.0488H131.175V85.9268H134.297ZM134.297 89.0488V92.1707H131.175V89.0488H134.297ZM134.297 92.1707V95.2927H131.175V92.1707H134.297ZM134.297 95.2927V98.4146H131.175V95.2927H134.297ZM134.297 98.4146V101.537H131.175V98.4146H134.297ZM134.297 101.537V104.659H131.175V101.537H134.297ZM134.297 104.659V107.78H131.175V104.659H134.297ZM134.297 107.78V110.902H131.175V107.78H134.297ZM134.297 110.902V114.024H131.175V110.902H134.297ZM137.419 107.78V110.902H134.297V107.78H137.419ZM137.419 104.659V107.78H134.297V104.659H137.419ZM143.663 135.878V139H140.541V135.878H143.663ZM146.785 135.878V139H143.663V135.878H146.785ZM146.785 132.756V135.878H143.663V132.756H146.785ZM146.785 129.634V132.756H143.663V129.634H146.785ZM146.785 126.512V129.634H143.663V126.512H146.785ZM146.785 123.39V126.512H143.663V123.39H146.785ZM143.663 123.39V126.512H140.541V123.39H143.663ZM143.663 126.512V129.634H140.541V126.512H143.663ZM143.663 129.634V132.756H140.541V129.634H143.663ZM143.663 132.756V135.878H140.541V132.756H143.663ZM149.907 123.39V126.512H146.785V123.39H149.907ZM153.029 123.39V126.512H149.907V123.39H153.029ZM156.151 123.39V126.512H153.029V123.39H156.151ZM156.151 132.756V135.878H153.029V132.756H156.151ZM153.029 135.878V139H149.907V135.878H153.029ZM149.907 135.878V139H146.785V135.878H149.907ZM156.151 135.878V139H153.029V135.878H156.151ZM153.029 132.756V135.878H149.907V132.756H153.029ZM149.907 132.756V135.878H146.785V132.756H149.907ZM149.907 129.634V132.756H146.785V129.634H149.907ZM153.029 129.634V132.756H149.907V129.634H153.029ZM156.151 129.634V132.756H153.029V129.634H156.151ZM156.151 126.512V129.634H153.029V126.512H156.151ZM153.029 126.512V129.634H149.907V126.512H153.029ZM149.907 126.512V129.634H146.785V126.512H149.907ZM159.273 135.878V139H156.151V135.878H159.273ZM162.395 135.878V139H159.273V135.878H162.395ZM165.517 135.878V139H162.395V135.878H165.517ZM165.517 132.756V135.878H162.395V132.756H165.517ZM159.273 123.39V126.512H156.151V123.39H159.273ZM162.395 123.39V126.512H159.273V123.39H162.395ZM165.517 123.39V126.512H162.395V123.39H165.517ZM165.517 126.512V129.634H162.395V126.512H165.517ZM165.517 129.634V132.756H162.395V129.634H165.517ZM162.395 129.634V132.756H159.273V129.634H162.395ZM162.395 126.512V129.634H159.273V126.512H162.395ZM159.273 126.512V129.634H156.151V126.512H159.273ZM159.273 129.634V132.756H156.151V129.634H159.273ZM159.273 132.756V135.878H156.151V132.756H159.273ZM162.395 132.756V135.878H159.273V132.756H162.395Z" fill="white"/>
</g>
<g filter="url(#filter1_d_4_3)">
<rect x="57" y="152" width="111" height="20" fill="white"/>
</g>
</g>
<defs>
<filter id="filter0_d_4_3" x="55.4314" y="60.9512" width="114.085" height="86.0488" filterUnits="userSpaceOnUse" color-interpolation-filters="sRGB">
<feFlood flood-opacity="0" result="BackgroundImageFix"/>
<feColorMatrix in="SourceAlpha" type="matrix" values="0 0 0 0 0 0 0 0 0 0 0 0 0 0 0 0 0 0 127 0" result="hardAlpha"/>
<feOffset dy="4"/>
<feGaussianBlur stdDeviation="2"/>
<feComposite in2="hardAlpha" operator="out"/>
<feColorMatrix type="matrix" values="0 0 0 0 0 0 0 0 0 0 0 0 0 0 0 0 0 0 0.25 0"/>
<feBlend mode="normal" in2="BackgroundImageFix" result="effect1_dropShadow_4_3"/>
<feBlend mode="normal" in="SourceGraphic" in2="effect1_dropShadow_4_3" result="shape"/>
</filter>
<filter id="filter1_d_4_3" x="53" y="152" width="119" height="28" filterUnits="userSpaceOnUse" color-interpolation-filters="sRGB">
<feFlood flood-opacity="0" result="BackgroundImageFix"/>
<feColorMatrix in="SourceAlpha" type="matrix" values="0 0 0 0 0 0 0 0 0 0 0 0 0 0 0 0 0 0 127 0" result="hardAlpha"/>
<feOffset dy="4"/>
<feGaussianBlur stdDeviation="2"/>
<feComposite in2="hardAlpha" operator="out"/>
<feColorMatrix type="matrix" values="0 0 0 0 0 0 0 0 0 0 0 0 0 0 0 0 0 0 0.25 0"/>
<feBlend mode="normal" in2="BackgroundImageFix" result="effect1_dropShadow_4_3"/>
<feBlend mode="normal" in="SourceGraphic" in2="effect1_dropShadow_4_3" result="shape"/>
</filter>
<clipPath id="clip0_4_3">
<rect width="225" height="225" fill="white"/>
</clipPath>
</defs>
</svg>
