<svg width="407" height="351" viewBox="0 0 407 351" fill="none" xmlns="http://www.w3.org/2000/svg">
<rect width="407" height="351" fill="white"/>
<circle cx="203.5" cy="175.5" r="112.5" fill="#42A5F5"/>
<g filter="url(#filter0_d_1_2)">
<path d="M153.553 186.39V189.512H150.431V186.39H153.553ZM153.553 183.268V186.39H150.431V183.268H153.553ZM153.553 180.146V183.268H150.431V180.146H153.553ZM153.553 177.024V180.146H150.431V177.024H153.553ZM153.553 173.902V177.024H150.431V173.902H153.553ZM153.553 170.78V173.902H150.431V170.78H153.553ZM153.553 167.659V170.78H150.431V167.659H153.553ZM153.553 164.537V167.659H150.431V164.537H153.553ZM153.553 161.415V164.537H150.431V161.415H153.553ZM153.553 158.293V161.415H150.431V158.293H153.553ZM153.553 155.171V158.293H150.431V155.171H153.553ZM156.675 155.171V158.293H153.553V155.171H156.675ZM156.675 158.293V161.415H153.553V158.293H156.675ZM156.675 161.415V164.537H153.553V161.415H156.675ZM156.675 164.537V167.659H153.553V164.537H156.675ZM156.675 167.659V170.78H153.553V167.659H156.675ZM156.675 170.78V173.902H153.553V170.78H156.675ZM156.675 173.902V177.024H153.553V173.902H156.675ZM159.797 177.024V180.146H156.675V177.024H159.797ZM159.797 180.146V183.268H156.675V180.146H159.797ZM159.797 183.268V186.39H156.675V183.268H159.797ZM159.797 186.39V189.512H156.675V186.39H159.797ZM159.797 189.512V192.634H156.675V189.512H159.797ZM159.797 192.634V195.756H156.675V192.634H159.797ZM159.797 195.756V198.878H156.675V195.756H159.797ZM166.041 198.878V202H162.919V198.878H166.041ZM166.041 195.756V198.878H162.919V195.756H166.041ZM166.041 192.634V195.756H162.919V192.634H166.041ZM166.041 189.512V192.634H162.919V189.512H166.041ZM166.041 186.39V189.512H162.919V186.39H166.041ZM166.041 183.268V186.39H162.919V183.268H166.041ZM166.041 180.146V183.268H162.919V180.146H166.041ZM166.041 177.024V180.146H162.919V177.024H166.041ZM162.919 177.024V180.146H159.797V177.024H162.919ZM162.919 173.902V177.024H159.797V173.902H162.919ZM162.919 180.146V183.268H159.797V180.146H162.919ZM162.919 183.268V186.39H159.797V183.268H162.919ZM162.919 186.39V189.512H159.797V186.39H162.919ZM162.919 189.512V192.634H159.797V189.512H162.919ZM162.919 192.634V195.756H159.797V192.634H162.919ZM162.919 195.756V198.878H159.797V195.756H162.919ZM156.675 192.634V195.756H153.553V192.634H156.675ZM156.675 189.512V192.634H153.553V189.512H156.675ZM156.675 186.39V189.512H153.553V186.39H156.675ZM156.675 183.268V186.39H153.553V183.268H156.675ZM156.675 180.146V183.268H153.553V180.146H156.675ZM156.675 177.024V180.146H153.553V177.024H156.675ZM153.553 152.049V155.171H150.431V152.049H153.553ZM162.919 152.049V155.171H159.797V152.049H162.919ZM162.919 155.171V158.293H159.797V155.171H162.919ZM162.919 158.293V161.415H159.797V158.293H162.919ZM162.919 161.415V164.537H159.797V161.415H162.919ZM162.919 164.537V167.659H159.797V164.537H162.919ZM166.041 167.659V170.78H162.919V167.659H166.041ZM166.041 170.78V173.902H162.919V170.78H166.041ZM166.041 173.902V177.024H162.919V173.902H166.041ZM166.041 164.537V167.659H162.919V164.537H166.041ZM166.041 161.415V164.537H162.919V161.415H166.041ZM166.041 158.293V161.415H162.919V158.293H166.041ZM166.041 155.171V158.293H162.919V155.171H166.041ZM166.041 152.049V155.171H162.919V152.049H166.041ZM156.675 152.049V155.171H153.553V152.049H156.675ZM159.797 152.049V155.171H156.675V152.049H159.797ZM159.797 155.171V158.293H156.675V155.171H159.797ZM159.797 158.293V161.415H156.675V158.293H159.797ZM159.797 161.415V164.537H156.675V161.415H159.797ZM159.797 164.537V167.659H156.675V164.537H159.797ZM159.797 167.659V170.78H156.675V167.659H159.797ZM159.797 170.78V173.902H156.675V170.78H159.797ZM159.797 173.902V177.024H156.675V173.902H159.797ZM162.919 170.78V173.902H159.797V170.78H162.919ZM162.919 167.659V170.78H159.797V167.659H162.919ZM191.017 198.878V202H187.895V198.878H191.017ZM191.017 195.756V198.878H187.895V195.756H191.017ZM191.017 192.634V195.756H187.895V192.634H191.017ZM191.017 189.512V192.634H187.895V189.512H191.017ZM191.017 186.39V189.512H187.895V186.39H191.017ZM191.017 183.268V186.39H187.895V183.268H191.017ZM191.017 180.146V183.268H187.895V180.146H191.017ZM197.261 180.146V183.268H194.139V180.146H197.261ZM197.261 183.268V186.39H194.139V183.268H197.261ZM197.261 186.39V189.512H194.139V186.39H197.261ZM197.261 189.512V192.634H194.139V189.512H197.261ZM197.261 192.634V195.756H194.139V192.634H197.261ZM197.261 195.756V198.878H194.139V195.756H197.261ZM203.505 186.39V189.512H200.383V186.39H203.505ZM203.505 183.268V186.39H200.383V183.268H203.505ZM203.505 180.146V183.268H200.383V180.146H203.505ZM200.383 180.146V183.268H197.261V180.146H200.383ZM200.383 183.268V186.39H197.261V183.268H200.383ZM200.383 186.39V189.512H197.261V186.39H200.383ZM200.383 189.512V192.634H197.261V189.512H200.383ZM200.383 192.634V195.756H197.261V192.634H200.383ZM194.139 195.756V198.878H191.017V195.756H194.139ZM194.139 192.634V195.756H191.017V192.634H194.139ZM194.139 189.512V192.634H191.017V189.512H194.139ZM194.139 186.39V189.512H191.017V186.39H194.139ZM194.139 183.268V186.39H191.017V183.268H194.139ZM194.139 180.146V183.268H191.017V180.146H194.139ZM169.163 198.878V202H166.041V198.878H169.163ZM172.285 198.878V202H169.163V198.878H172.285ZM175.407 198.878V202H172.285V198.878H175.407ZM178.529 198.878V202H175.407V198.878H178.529ZM184.773 198.878V202H181.651V198.878H184.773ZM187.895 198.878V202H184.773V198.878H187.895ZM187.895 195.756V198.878H184.773V195.756H187.895ZM184.773 195.756V198.878H181.651V195.756H184.773ZM178.529 195.756V198.878H175.407V195.756H178.529ZM175.407 195.756V198.878H172.285V195.756H175.407ZM172.285 195.756V198.878H169.163V195.756H172.285ZM169.163 195.756V198.878H166.041V195.756H169.163ZM169.163 192.634V195.756H166.041V192.634H169.163ZM172.285 192.634V195.756H169.163V192.634H172.285ZM175.407 192.634V195.756H172.285V192.634H175.407ZM178.529 192.634V195.756H175.407V192.634H178.529ZM184.773 192.634V195.756H181.651V192.634H184.773ZM187.895 192.634V195.756H184.773V192.634H187.895ZM187.895 189.512V192.634H184.773V189.512H187.895ZM184.773 189.512V192.634H181.651V189.512H184.773ZM178.529 189.512V192.634H175.407V189.512H178.529ZM175.407 189.512V192.634H172.285V189.512H175.407ZM172.285 189.512V192.634H169.163V189.512H172.285ZM169.163 189.512V192.634H166.041V189.512H169.163ZM169.163 186.39V189.512H166.041V186.39H169.163ZM187.895 186.39V189.512H184.773V186.39H187.895ZM200.383 139.561V136.439H203.505V139.561H200.383ZM200.383 142.683V139.561H203.505V142.683H200.383ZM200.383 145.805V142.683H203.505V145.805H200.383ZM194.139 145.805V142.683H197.261V145.805H194.139ZM194.139 142.683V139.561H197.261V142.683H194.139ZM194.139 139.561V136.439H197.261V139.561H194.139ZM194.139 136.439V133.317H197.261V136.439H194.139ZM194.139 133.317V130.195H197.261V133.317H194.139ZM194.139 130.195V127.073H197.261V130.195H194.139ZM187.895 127.073V123.951H191.017V127.073H187.895ZM187.895 130.195V127.073H191.017V130.195H187.895ZM187.895 133.317V130.195H191.017V133.317H187.895ZM187.895 136.439V133.317H191.017V136.439H187.895ZM187.895 139.561V136.439H191.017V139.561H187.895ZM187.895 142.683V139.561H191.017V142.683H187.895ZM187.895 145.805V142.683H191.017V145.805H187.895ZM191.017 145.805V142.683H194.139V145.805H191.017ZM191.017 142.683V139.561H194.139V142.683H191.017ZM191.017 139.561V136.439H194.139V139.561H191.017ZM191.017 136.439V133.317H194.139V136.439H191.017ZM191.017 133.317V130.195H194.139V133.317H191.017ZM191.017 130.195V127.073H194.139V130.195H191.017ZM197.261 133.317V130.195H200.383V133.317H197.261ZM197.261 136.439V133.317H200.383V136.439H197.261ZM197.261 139.561V136.439H200.383V139.561H197.261ZM197.261 142.683V139.561H200.383V142.683H197.261ZM197.261 145.805V142.683H200.383V145.805H197.261ZM162.919 127.073V123.951H166.041V127.073H162.919ZM162.919 130.195V127.073H166.041V130.195H162.919ZM162.919 133.317V130.195H166.041V133.317H162.919ZM162.919 136.439V133.317H166.041V136.439H162.919ZM162.919 139.561V136.439H166.041V139.561H162.919ZM162.919 142.683V139.561H166.041V142.683H162.919ZM162.919 145.805V142.683H166.041V145.805H162.919ZM156.675 145.805V142.683H159.797V145.805H156.675ZM156.675 142.683V139.561H159.797V142.683H156.675ZM156.675 139.561V136.439H159.797V139.561H156.675ZM156.675 136.439V133.317H159.797V136.439H156.675ZM156.675 133.317V130.195H159.797V133.317H156.675ZM156.675 130.195V127.073H159.797V130.195H156.675ZM150.431 139.561V136.439H153.553V139.561H150.431ZM150.431 142.683V139.561H153.553V142.683H150.431ZM150.431 145.805V142.683H153.553V145.805H150.431ZM153.553 145.805V142.683H156.675V145.805H153.553ZM153.553 142.683V139.561H156.675V142.683H153.553ZM153.553 139.561V136.439H156.675V139.561H153.553ZM153.553 136.439V133.317H156.675V136.439H153.553ZM153.553 133.317V130.195H156.675V133.317H153.553ZM159.797 130.195V127.073H162.919V130.195H159.797ZM159.797 133.317V130.195H162.919V133.317H159.797ZM159.797 136.439V133.317H162.919V136.439H159.797ZM159.797 139.561V136.439H162.919V139.561H159.797ZM159.797 142.683V139.561H162.919V142.683H159.797ZM159.797 145.805V142.683H162.919V145.805H159.797ZM184.773 127.073V123.951H187.895V127.073H184.773ZM181.651 127.073V123.951H184.773V127.073H181.651ZM175.407 127.073V123.951H178.529V127.073H175.407ZM172.285 127.073V123.951H175.407V127.073H172.285ZM169.163 127.073V123.951H172.285V127.073H169.163ZM166.041 127.073V123.951H169.163V127.073H166.041ZM166.041 130.195V127.073H169.163V130.195H166.041ZM169.163 130.195V127.073H172.285V130.195H169.163ZM172.285 130.195V127.073H175.407V130.195H172.285ZM175.407 130.195V127.073H178.529V130.195H175.407ZM181.651 130.195V127.073H184.773V130.195H181.651ZM184.773 130.195V127.073H187.895V130.195H184.773ZM184.773 133.317V130.195H187.895V133.317H184.773ZM181.651 133.317V130.195H184.773V133.317H181.651ZM175.407 133.317V130.195H178.529V133.317H175.407ZM172.285 133.317V130.195H175.407V133.317H172.285ZM169.163 133.317V130.195H172.285V133.317H169.163ZM166.041 133.317V130.195H169.163V133.317H166.041ZM166.041 136.439V133.317H169.163V136.439H166.041ZM169.163 136.439V133.317H172.285V136.439H169.163ZM172.285 136.439V133.317H175.407V136.439H172.285ZM175.407 136.439V133.317H178.529V136.439H175.407ZM181.651 136.439V133.317H184.773V136.439H181.651ZM184.773 136.439V133.317H187.895V136.439H184.773ZM184.773 139.561V136.439H187.895V139.561H184.773ZM166.041 139.561V136.439H169.163V139.561H166.041ZM153.553 148.927V152.049H150.431V148.927H153.553ZM156.675 148.927V152.049H153.553V148.927H156.675ZM153.553 145.805V148.927H150.431V145.805H153.553ZM162.919 145.805V148.927H159.797V145.805H162.919ZM162.919 148.927V152.049H159.797V148.927H162.919ZM166.041 148.927V152.049H162.919V148.927H166.041ZM166.041 145.805V148.927H162.919V145.805H166.041ZM156.675 145.805V148.927H153.553V145.805H156.675ZM159.797 145.805V148.927H156.675V145.805H159.797ZM159.797 148.927V152.049H156.675V148.927H159.797ZM178.529 158.293V161.415H175.407V158.293H178.529ZM178.529 161.415V164.537H175.407V161.415H178.529ZM184.773 161.415V164.537H181.651V161.415H184.773ZM187.895 161.415V164.537H184.773V161.415H187.895ZM191.017 161.415V164.537H187.895V161.415H191.017ZM194.139 161.415V164.537H191.017V161.415H194.139ZM197.261 161.415V164.537H194.139V161.415H197.261ZM200.383 161.415V164.537H197.261V161.415H200.383ZM203.505 158.293V161.415H200.383V158.293H203.505ZM200.383 158.293V161.415H197.261V158.293H200.383ZM197.261 158.293V161.415H194.139V158.293H197.261ZM194.139 158.293V161.415H191.017V158.293H194.139ZM191.017 158.293V161.415H187.895V158.293H191.017ZM187.895 158.293V161.415H184.773V158.293H187.895ZM184.773 158.293V161.415H181.651V158.293H184.773ZM203.505 161.415V164.537H200.383V161.415H203.505ZM203.505 164.537V167.659H200.383V164.537H203.505ZM203.505 167.659V170.78H200.383V167.659H203.505ZM203.505 170.78V173.902H200.383V170.78H203.505ZM203.505 173.902V177.024H200.383V173.902H203.505ZM203.505 177.024V180.146H200.383V177.024H203.505ZM200.383 177.024V180.146H197.261V177.024H200.383ZM197.261 177.024V180.146H194.139V177.024H197.261ZM194.139 177.024V180.146H191.017V177.024H194.139ZM191.017 177.024V180.146H187.895V177.024H191.017ZM191.017 173.902V177.024H187.895V173.902H191.017ZM194.139 173.902V177.024H191.017V173.902H194.139ZM197.261 173.902V177.024H194.139V173.902H197.261ZM200.383 173.902V177.024H197.261V173.902H200.383ZM200.383 170.78V173.902H197.261V170.78H200.383ZM197.261 170.78V173.902H194.139V170.78H197.261ZM194.139 170.78V173.902H191.017V170.78H194.139ZM191.017 170.78V173.902H187.895V170.78H191.017ZM178.529 164.537V167.659H175.407V164.537H178.529ZM178.529 167.659V170.78H175.407V167.659H178.529ZM184.773 167.659V170.78H181.651V167.659H184.773ZM187.895 167.659V170.78H184.773V167.659H187.895ZM191.017 167.659V170.78H187.895V167.659H191.017ZM194.139 167.659V170.78H191.017V167.659H194.139ZM197.261 167.659V170.78H194.139V167.659H197.261ZM200.383 167.659V170.78H197.261V167.659H200.383ZM200.383 164.537V167.659H197.261V164.537H200.383ZM197.261 164.537V167.659H194.139V164.537H197.261ZM194.139 164.537V167.659H191.017V164.537H194.139ZM191.017 164.537V167.659H187.895V164.537H191.017ZM187.895 164.537V167.659H184.773V164.537H187.895ZM184.773 164.537V167.659H181.651V164.537H184.773ZM172.285 186.39V189.512H169.163V186.39H172.285ZM175.407 186.39V189.512H172.285V186.39H175.407ZM178.529 186.39V189.512H175.407V186.39H178.529ZM184.773 186.39V189.512H181.651V186.39H184.773ZM187.895 183.268V186.39H184.773V183.268H187.895ZM169.163 183.268V186.39H166.041V183.268H169.163ZM172.285 136.439V139.561H169.163V136.439H172.285ZM175.407 136.439V139.561H172.285V136.439H175.407ZM178.529 136.439V139.561H175.407V136.439H178.529ZM184.773 136.439V139.561H181.651V136.439H184.773ZM169.163 139.561V142.683H166.041V139.561H169.163ZM187.895 139.561V142.683H184.773V139.561H187.895ZM191.017 145.805V148.927H187.895V145.805H191.017ZM194.139 145.805V148.927H191.017V145.805H194.139ZM197.261 145.805V148.927H194.139V145.805H197.261ZM200.383 145.805V148.927H197.261V145.805H200.383ZM203.505 145.805V148.927H200.383V145.805H203.505ZM178.529 170.78V173.902H175.407V170.78H178.529ZM184.773 170.78V173.902H181.651V170.78H184.773ZM187.895 170.78V173.902H184.773V170.78H187.895ZM181.651 123.951V127.073H178.529V123.951H181.651ZM181.651 127.073V130.195H178.529V127.073H181.651ZM181.651 130.195V133.317H178.529V130.195H181.651ZM181.651 133.317V136.439H178.529V133.317H181.651ZM181.651 136.439V139.561H178.529V136.439H181.651ZM181.651 158.293V161.415H178.529V158.293H181.651ZM181.651 161.415V164.537H178.529V161.415H181.651ZM181.651 164.537V167.659H178.529V164.537H181.651ZM181.651 167.659V170.78H178.529V167.659H181.651ZM181.651 170.78V173.902H178.529V170.78H181.651ZM181.651 186.39V189.512H178.529V186.39H181.651ZM181.651 189.512V192.634H178.529V189.512H181.651ZM181.651 192.634V195.756H178.529V192.634H181.651ZM181.651 195.756V198.878H178.529V195.756H181.651ZM181.651 198.878V202H178.529V198.878H181.651ZM219.053 198.878V202H215.931V198.878H219.053ZM219.053 195.756V198.878H215.931V195.756H219.053ZM219.053 192.634V195.756H215.931V192.634H219.053ZM219.053 189.512V192.634H215.931V189.512H219.053ZM219.053 186.39V189.512H215.931V186.39H219.053ZM219.053 183.268V186.39H215.931V183.268H219.053ZM219.053 180.146V183.268H215.931V180.146H219.053ZM219.053 177.024V180.146H215.931V177.024H219.053ZM219.053 173.902V177.024H215.931V173.902H219.053ZM219.053 170.78V173.902H215.931V170.78H219.053ZM219.053 167.659V170.78H215.931V167.659H219.053ZM219.053 164.537V167.659H215.931V164.537H219.053ZM219.053 161.415V164.537H215.931V161.415H219.053ZM219.053 158.293V161.415H215.931V158.293H219.053ZM219.053 155.171V158.293H215.931V155.171H219.053ZM222.175 155.171V158.293H219.053V155.171H222.175ZM222.175 158.293V161.415H219.053V158.293H222.175ZM222.175 161.415V164.537H219.053V161.415H222.175ZM222.175 164.537V167.659H219.053V164.537H222.175ZM222.175 167.659V170.78H219.053V167.659H222.175ZM222.175 170.78V173.902H219.053V170.78H222.175ZM222.175 173.902V177.024H219.053V173.902H222.175ZM225.297 177.024V180.146H222.175V177.024H225.297ZM225.297 180.146V183.268H222.175V180.146H225.297ZM225.297 183.268V186.39H222.175V183.268H225.297ZM225.297 186.39V189.512H222.175V186.39H225.297ZM225.297 189.512V192.634H222.175V189.512H225.297ZM225.297 192.634V195.756H222.175V192.634H225.297ZM225.297 195.756V198.878H222.175V195.756H225.297ZM225.297 198.878V202H222.175V198.878H225.297ZM228.419 198.878V202H225.297V198.878H228.419ZM231.541 198.878V202H228.419V198.878H231.541ZM231.541 195.756V198.878H228.419V195.756H231.541ZM231.541 192.634V195.756H228.419V192.634H231.541ZM231.541 189.512V192.634H228.419V189.512H231.541ZM231.541 186.39V189.512H228.419V186.39H231.541ZM231.541 183.268V186.39H228.419V183.268H231.541ZM231.541 180.146V183.268H228.419V180.146H231.541ZM231.541 177.024V180.146H228.419V177.024H231.541ZM228.419 177.024V180.146H225.297V177.024H228.419ZM228.419 173.902V177.024H225.297V173.902H228.419ZM228.419 180.146V183.268H225.297V180.146H228.419ZM228.419 183.268V186.39H225.297V183.268H228.419ZM228.419 186.39V189.512H225.297V186.39H228.419ZM228.419 189.512V192.634H225.297V189.512H228.419ZM228.419 192.634V195.756H225.297V192.634H228.419ZM228.419 195.756V198.878H225.297V195.756H228.419ZM222.175 198.878V202H219.053V198.878H222.175ZM222.175 195.756V198.878H219.053V195.756H222.175ZM222.175 192.634V195.756H219.053V192.634H222.175ZM222.175 189.512V192.634H219.053V189.512H222.175ZM222.175 186.39V189.512H219.053V186.39H222.175ZM222.175 183.268V186.39H219.053V183.268H222.175ZM222.175 180.146V183.268H219.053V180.146H222.175ZM222.175 177.024V180.146H219.053V177.024H222.175ZM219.053 123.951V127.073H215.931V123.951H219.053ZM219.053 127.073V130.195H215.931V127.073H219.053ZM219.053 130.195V133.317H215.931V130.195H219.053ZM219.053 133.317V136.439H215.931V133.317H219.053ZM219.053 136.439V139.561H215.931V136.439H219.053ZM219.053 139.561V142.683H215.931V139.561H219.053ZM219.053 142.683V145.805H215.931V142.683H219.053ZM219.053 145.805V148.927H215.931V145.805H219.053ZM219.053 148.927V152.049H215.931V148.927H219.053ZM219.053 152.049V155.171H215.931V152.049H219.053ZM228.419 123.951V127.073H225.297V123.951H228.419ZM228.419 127.073V130.195H225.297V127.073H228.419ZM228.419 130.195V133.317H225.297V130.195H228.419ZM228.419 133.317V136.439H225.297V133.317H228.419ZM228.419 136.439V139.561H225.297V136.439H228.419ZM228.419 139.561V142.683H225.297V139.561H228.419ZM228.419 145.805V148.927H225.297V145.805H228.419ZM228.419 148.927V152.049H225.297V148.927H228.419ZM228.419 152.049V155.171H225.297V152.049H228.419ZM228.419 155.171V158.293H225.297V155.171H228.419ZM228.419 158.293V161.415H225.297V158.293H228.419ZM228.419 161.415V164.537H225.297V161.415H228.419ZM228.419 164.537V167.659H225.297V164.537H228.419ZM231.541 167.659V170.78H228.419V167.659H231.541ZM231.541 170.78V173.902H228.419V170.78H231.541ZM231.541 173.902V177.024H228.419V173.902H231.541ZM231.541 164.537V167.659H228.419V164.537H231.541ZM231.541 161.415V164.537H228.419V161.415H231.541ZM231.541 158.293V161.415H228.419V158.293H231.541ZM231.541 155.171V158.293H228.419V155.171H231.541ZM231.541 152.049V155.171H228.419V152.049H231.541ZM231.541 148.927V152.049H228.419V148.927H231.541ZM231.541 145.805V148.927H228.419V145.805H231.541ZM231.541 142.683V145.805H228.419V142.683H231.541ZM231.541 139.561V142.683H228.419V139.561H231.541ZM231.541 136.439V139.561H228.419V136.439H231.541ZM228.419 142.683V145.805H225.297V142.683H228.419ZM231.541 133.317V136.439H228.419V133.317H231.541ZM231.541 130.195V133.317H228.419V130.195H231.541ZM231.541 127.073V130.195H228.419V127.073H231.541ZM231.541 123.951V127.073H228.419V123.951H231.541ZM225.297 123.951V127.073H222.175V123.951H225.297ZM222.175 123.951V127.073H219.053V123.951H222.175ZM222.175 127.073V130.195H219.053V127.073H222.175ZM225.297 127.073V130.195H222.175V127.073H225.297ZM225.297 130.195V133.317H222.175V130.195H225.297ZM225.297 133.317V136.439H222.175V133.317H225.297ZM225.297 136.439V139.561H222.175V136.439H225.297ZM225.297 139.561V142.683H222.175V139.561H225.297ZM225.297 142.683V145.805H222.175V142.683H225.297ZM225.297 145.805V148.927H222.175V145.805H225.297ZM222.175 148.927V152.049H219.053V148.927H222.175ZM222.175 152.049V155.171H219.053V152.049H222.175ZM222.175 145.805V148.927H219.053V145.805H222.175ZM222.175 142.683V145.805H219.053V142.683H222.175ZM222.175 139.561V142.683H219.053V139.561H222.175ZM222.175 136.439V139.561H219.053V136.439H222.175ZM222.175 133.317V136.439H219.053V133.317H222.175ZM222.175 130.195V133.317H219.053V130.195H222.175ZM225.297 148.927V152.049H222.175V148.927H225.297ZM225.297 152.049V155.171H222.175V152.049H225.297ZM225.297 155.171V158.293H222.175V155.171H225.297ZM225.297 158.293V161.415H222.175V158.293H225.297ZM225.297 161.415V164.537H222.175V161.415H225.297ZM225.297 164.537V167.659H222.175V164.537H225.297ZM225.297 167.659V170.78H222.175V167.659H225.297ZM225.297 170.78V173.902H222.175V170.78H225.297ZM225.297 173.902V177.024H222.175V173.902H225.297ZM228.419 170.78V173.902H225.297V170.78H228.419ZM228.419 167.659V170.78H225.297V167.659H228.419ZM234.663 198.878V202H231.541V198.878H234.663ZM237.785 198.878V202H234.663V198.878H237.785ZM237.785 195.756V198.878H234.663V195.756H237.785ZM237.785 192.634V195.756H234.663V192.634H237.785ZM237.785 189.512V192.634H234.663V189.512H237.785ZM237.785 186.39V189.512H234.663V186.39H237.785ZM234.663 186.39V189.512H231.541V186.39H234.663ZM234.663 189.512V192.634H231.541V189.512H234.663ZM234.663 192.634V195.756H231.541V192.634H234.663ZM234.663 195.756V198.878H231.541V195.756H234.663ZM240.907 186.39V189.512H237.785V186.39H240.907ZM244.029 186.39V189.512H240.907V186.39H244.029ZM247.151 186.39V189.512H244.029V186.39H247.151ZM247.151 195.756V198.878H244.029V195.756H247.151ZM244.029 198.878V202H240.907V198.878H244.029ZM240.907 198.878V202H237.785V198.878H240.907ZM247.151 198.878V202H244.029V198.878H247.151ZM244.029 195.756V198.878H240.907V195.756H244.029ZM240.907 195.756V198.878H237.785V195.756H240.907ZM240.907 192.634V195.756H237.785V192.634H240.907ZM244.029 192.634V195.756H240.907V192.634H244.029ZM247.151 192.634V195.756H244.029V192.634H247.151ZM247.151 189.512V192.634H244.029V189.512H247.151ZM244.029 189.512V192.634H240.907V189.512H244.029ZM240.907 189.512V192.634H237.785V189.512H240.907ZM250.273 198.878V202H247.151V198.878H250.273ZM253.395 198.878V202H250.273V198.878H253.395ZM256.517 198.878V202H253.395V198.878H256.517ZM256.517 195.756V198.878H253.395V195.756H256.517ZM250.273 186.39V189.512H247.151V186.39H250.273ZM253.395 186.39V189.512H250.273V186.39H253.395ZM256.517 186.39V189.512H253.395V186.39H256.517ZM256.517 189.512V192.634H253.395V189.512H256.517ZM256.517 192.634V195.756H253.395V192.634H256.517ZM253.395 192.634V195.756H250.273V192.634H253.395ZM253.395 189.512V192.634H250.273V189.512H253.395ZM250.273 189.512V192.634H247.151V189.512H250.273ZM250.273 192.634V195.756H247.151V192.634H250.273ZM250.273 195.756V198.878H247.151V195.756H250.273ZM253.395 195.756V198.878H250.273V195.756H253.395Z" fill="white"/>
</g>
<g filter="url(#filter1_d_1_2)">
<rect x="148" y="215" width="111" height="20" fill="white"/>
</g>
<defs>
<filter id="filter0_d_1_2" x="146.431" y="123.951" width="114.085" height="86.0488" filterUnits="userSpaceOnUse" color-interpolation-filters="sRGB">
<feFlood flood-opacity="0" result="BackgroundImageFix"/>
<feColorMatrix in="SourceAlpha" type="matrix" values="0 0 0 0 0 0 0 0 0 0 0 0 0 0 0 0 0 0 127 0" result="hardAlpha"/>
<feOffset dy="4"/>
<feGaussianBlur stdDeviation="2"/>
<feComposite in2="hardAlpha" operator="out"/>
<feColorMatrix type="matrix" values="0 0 0 0 0 0 0 0 0 0 0 0 0 0 0 0 0 0 0.25 0"/>
<feBlend mode="normal" in2="BackgroundImageFix" result="effect1_dropShadow_1_2"/>
<feBlend mode="normal" in="SourceGraphic" in2="effect1_dropShadow_1_2" result="shape"/>
</filter>
<filter id="filter1_d_1_2" x="144" y="215" width="119" height="28" filterUnits="userSpaceOnUse" color-interpolation-filters="sRGB">
<feFlood flood-opacity="0" result="BackgroundImageFix"/>
<feColorMatrix in="SourceAlpha" type="matrix" values="0 0 0 0 0 0 0 0 0 0 0 0 0 0 0 0 0 0 127 0" result="hardAlpha"/>
<feOffset dy="4"/>
<feGaussianBlur stdDeviation="2"/>
<feComposite in2="hardAlpha" operator="out"/>
<feColorMatrix type="matrix" values="0 0 0 0 0 0 0 0 0 0 0 0 0 0 0 0 0 0 0.25 0"/>
<feBlend mode="normal" in2="BackgroundImageFix" result="effect1_dropShadow_1_2"/>
<feBlend mode="normal" in="SourceGraphic" in2="effect1_dropShadow_1_2" result="shape"/>
</filter>
</defs>
</svg>
